<svg xmlns="http://www.w3.org/2000/svg" width="760" height="430" viewBox="0 0 760 430">
<rect width="100%" height="100%" fill="white"/>
<text x="380.0" y="30" text-anchor="middle" font-family="system-ui" font-size="20">Exp 02: raw MLX generation throughput by input context</text>
<text x="18" y="215.0" transform="rotate(-90 18 215.0)" text-anchor="middle" font-family="system-ui" font-size="14">Mean generation throughput (tokens/second)</text>
<line x1="92" y1="350.0" x2="730" y2="350.0" stroke="#d0d0d0"/>
<text x="82" y="355.0" text-anchor="end" font-family="system-ui" font-size="12">0.0</text>
<line x1="92" y1="276.5" x2="730" y2="276.5" stroke="#d0d0d0"/>
<text x="82" y="281.5" text-anchor="end" font-family="system-ui" font-size="12">23.5</text>
<line x1="92" y1="203.0" x2="730" y2="203.0" stroke="#d0d0d0"/>
<text x="82" y="208.0" text-anchor="end" font-family="system-ui" font-size="12">47.0</text>
<line x1="92" y1="129.5" x2="730" y2="129.5" stroke="#d0d0d0"/>
<text x="82" y="134.5" text-anchor="end" font-family="system-ui" font-size="12">70.5</text>
<line x1="92" y1="56.0" x2="730" y2="56.0" stroke="#d0d0d0"/>
<text x="82" y="61.0" text-anchor="end" font-family="system-ui" font-size="12">94.0</text>
<text x="92.0" y="388" text-anchor="middle" font-family="system-ui" font-size="14">2k</text>
<text x="411.0" y="388" text-anchor="middle" font-family="system-ui" font-size="14">16k</text>
<text x="730.0" y="388" text-anchor="middle" font-family="system-ui" font-size="14">32k</text>
<polyline points="92.0,116.3 411.0,178.0 730.0,234.1" fill="none" stroke="#d65f00" stroke-width="3"/>
<line x1="92.0" y1="87.5" x2="92.0" y2="145.1" stroke="#d65f00" stroke-width="2"/>
<line x1="87.0" y1="87.5" x2="97.0" y2="87.5" stroke="#d65f00" stroke-width="2"/>
<line x1="87.0" y1="145.1" x2="97.0" y2="145.1" stroke="#d65f00" stroke-width="2"/>
<circle cx="92.0" cy="116.3" r="5" fill="#d65f00"/>
<line x1="411.0" y1="175.5" x2="411.0" y2="180.5" stroke="#d65f00" stroke-width="2"/>
<line x1="406.0" y1="175.5" x2="416.0" y2="175.5" stroke="#d65f00" stroke-width="2"/>
<line x1="406.0" y1="180.5" x2="416.0" y2="180.5" stroke="#d65f00" stroke-width="2"/>
<circle cx="411.0" cy="178.0" r="5" fill="#d65f00"/>
<line x1="730.0" y1="233.0" x2="730.0" y2="235.2" stroke="#d65f00" stroke-width="2"/>
<line x1="725.0" y1="233.0" x2="735.0" y2="233.0" stroke="#d65f00" stroke-width="2"/>
<line x1="725.0" y1="235.2" x2="735.0" y2="235.2" stroke="#d65f00" stroke-width="2"/>
<circle cx="730.0" cy="234.1" r="5" fill="#d65f00"/>
<rect x="92" y="406" width="14" height="14" fill="#d65f00"/>
<text x="112" y="418" font-family="system-ui" font-size="13">raw MLX</text>
<text x="730" y="418" text-anchor="end" font-family="system-ui" font-size="12" fill="#555">mean ± 1 SD (n=5)</text>
</svg>
